<svg xmlns="http://www.w3.org/2000/svg" width="29.167" height="29.167" viewBox="0 0 29.167 29.167">
  <g id="Logo_short" transform="translate(-43.341 -43.339)">
    <path id="Path_5" data-name="Path 5" d="M470.29,200.518a2.754,2.754,0,1,0-1.948,4.7h0a2.754,2.754,0,0,0,1.947-4.7Zm-1.1,2.8a1.2,1.2,0,0,1-.852.353h0a1.2,1.2,0,1,1,.852-.353Z" transform="translate(-404.982 -149.978)" fill="#1ce1b3"/>
    <g id="Group_2" data-name="Group 2" transform="translate(43.341 61.185)">
      <path id="Path_6" data-name="Path 6" d="M44.116,485.83a.774.774,0,0,1-.548-1.322l4.479-4.479a.775.775,0,1,1,1.1,1.1L44.664,485.6A.772.772,0,0,1,44.116,485.83Z" transform="translate(-43.341 -479.802)" fill="#1ce1b3"/>
    </g>
    <g id="Group_3" data-name="Group 3" transform="translate(44.343 65.287)">
      <path id="Path_7" data-name="Path 7" d="M68.605,586.339a.775.775,0,0,1-.548-1.322l4.668-4.668a.775.775,0,0,1,1.1,1.1l-4.668,4.668A.772.772,0,0,1,68.605,586.339Z" transform="translate(-67.83 -580.121)" fill="#1ce1b3"/>
    </g>
    <g id="Group_4" data-name="Group 4" transform="translate(48.634 66.478)">
      <path id="Path_8" data-name="Path 8" d="M173.556,615.271a.774.774,0,0,1-.548-1.322l4.479-4.479a.775.775,0,0,1,1.1,1.1l-4.479,4.479A.772.772,0,0,1,173.556,615.271Z" transform="translate(-172.782 -609.244)" fill="#1ce1b3"/>
    </g>
    <path id="Path_9" data-name="Path 9" d="M109.4,43.566a.775.775,0,0,0-.671-.217,28.649,28.649,0,0,0-5.162,1.485,31.389,31.389,0,0,0-4.846,2.334,25.559,25.559,0,0,0-4.9,3.756l-5.849,1.139a.776.776,0,0,0-.4.212l-5.3,5.282a.775.775,0,0,0,.546,1.323.786.786,0,0,0,.148-.014L88.946,57.7q-.584,1.145-1.091,2.377a.775.775,0,0,0,.169.842l1.464,1.464-1.36,1.36a.775.775,0,0,0,1.1,1.1l1.36-1.36,1.464,1.464a.774.774,0,0,0,.842.169q1.232-.507,2.377-1.091L94.1,70a.774.774,0,0,0,1.309.695l5.282-5.3a.776.776,0,0,0,.212-.4l1.139-5.849a25.568,25.568,0,0,0,3.757-4.9,31.432,31.432,0,0,0,2.334-4.846,28.664,28.664,0,0,0,1.485-5.162A.775.775,0,0,0,109.4,43.566ZM85.168,56.859,88.5,53.538l3.585-.7a26.473,26.473,0,0,0-2.161,3.093Zm14.263,7.61L96.11,67.8l.926-4.756a26.428,26.428,0,0,0,3.093-2.161Zm7.243-15.586a26.86,26.86,0,0,1-5.816,9.263A23.954,23.954,0,0,1,96,61.86a.763.763,0,0,0-.095.056,29.352,29.352,0,0,1-3.127,1.566l-1.1-1.1,2.212-2.212a.775.775,0,1,0-1.1-1.1l-2.212,2.212-1.1-1.1a29.37,29.37,0,0,1,1.566-3.127.77.77,0,0,0,.055-.094,23.945,23.945,0,0,1,3.715-4.862,26.859,26.859,0,0,1,9.262-5.816,30.785,30.785,0,0,1,3.765-1.177A30.815,30.815,0,0,1,106.674,48.883Z" transform="translate(-37.122 0)" fill="#1ce1b3"/>
  </g>
</svg>
